<svg width="704" height="704" viewBox="0 0 704 704" fill="none" xmlns="http://www.w3.org/2000/svg">
<style>
  path { fill: #000; }
  @media (prefers-color-scheme: dark) {
    path { fill: #fff; }
  }
</style>
<path transform="translate(72, 0)" d="M282.328 704C261.435 704 243.884 695.843 229.677 679.529C215.887 663.634 208.993 642.301 208.993 615.529C208.993 608.418 209.619 601.098 210.873 593.569C196.666 595.242 182.249 595.869 167.624 595.451C142.134 595.033 118.734 590.431 97.4224 581.647C76.5292 573.281 58.5609 561.987 43.5177 547.765C28.4746 533.542 17.1922 517.856 9.67061 500.706C2.14902 483.137 -0.98497 465.569 0.268628 448C2.35796 419.137 11.1331 392.575 26.5942 368.314C41.6374 344.052 61.0681 322.51 84.8865 303.686C108.705 284.863 134.404 269.595 161.983 257.882C156.55 251.19 152.163 243.66 148.82 235.294C145.477 226.928 143.806 217.935 143.806 208.314C143.806 203.712 144.223 198.693 145.059 193.255C145.895 187.817 147.357 182.379 149.447 176.941L150.7 173.804C116.017 161.255 90.7366 145.569 74.8577 126.745C59.3967 107.503 51.6661 88.8889 51.6661 70.902C51.6661 51.6601 59.3967 35.1373 74.8577 21.3334C90.3187 7.11112 111.421 0 138.164 0C156.133 0 176.19 4.18301 198.337 12.549C220.902 20.4968 244.929 34.0915 270.419 53.3334C298.834 39.1111 328.92 28.2353 360.678 20.7059C392.436 13.1765 422.94 9.41179 452.191 9.41179C485.62 9.41179 511.945 15.8954 531.167 28.8627C550.389 41.4118 560 56.8889 560 75.2941C560 84.915 556.866 95.1634 550.598 106.039C540.569 122.771 526.571 136.784 508.602 148.078C491.052 159.373 471.412 168.575 449.683 175.686C427.954 182.379 406.016 187.608 383.869 191.373C390.973 207.268 396.405 223.791 400.166 240.941C403.927 258.092 405.807 275.242 405.807 292.392C405.807 295.32 405.807 298.458 405.807 301.804C405.807 304.732 405.599 307.869 405.181 311.216C412.284 308.288 419.179 305.987 425.865 304.314C432.969 302.641 439.446 301.804 445.296 301.804C456.578 301.804 465.771 304.941 472.875 311.216C479.979 317.072 483.531 327.111 483.531 341.333C483.531 348.026 482.695 355.556 481.023 363.922C479.352 371.869 476.427 381.072 472.248 391.529C463.891 412.863 452.191 433.569 437.147 453.647C422.104 473.725 407.897 490.248 394.525 503.216C370.707 526.222 343.963 545.255 314.295 560.314C284.626 575.791 253.495 586.248 220.902 591.686L219.021 606.118C218.604 608.209 218.395 610.301 218.395 612.392C218.395 614.902 218.395 617.203 218.395 619.294C218.395 643.556 224.454 661.961 236.572 674.51C249.108 687.059 264.36 693.333 282.328 693.333C292.357 693.333 303.012 691.242 314.295 687.059C325.577 682.876 336.86 676.601 348.142 668.235C349.813 667.399 350.858 666.98 351.276 666.98C353.365 666.98 354.828 668.026 355.664 670.118C356.499 672.209 355.872 674.092 353.783 675.765C341.247 685.386 328.92 692.497 316.802 697.098C304.684 701.699 293.193 704 282.328 704ZM379.482 180.706C410.822 174.431 437.147 165.02 458.459 152.471C480.188 139.503 496.484 125.281 507.349 109.804C518.213 94.3268 523.646 79.8954 523.646 66.5098C523.646 53.1242 518.004 41.8301 506.722 32.6275C495.858 23.4249 478.725 18.8235 455.325 18.8235C427.328 18.8235 398.495 23.0065 368.826 31.3726C339.158 39.3203 311.997 51.0327 287.343 66.5098C292.775 70.6928 298.207 75.2941 303.639 80.3137C309.072 85.3333 314.504 90.7713 319.936 96.6275C344.172 120.052 364.021 148.078 379.482 180.706ZM153.834 165.647C163.027 143.477 177.026 123.399 195.83 105.412C214.634 87.0065 236.154 71.3203 260.39 58.353C239.915 44.1307 220.275 34.0915 201.471 28.2353C183.085 22.3791 166.161 19.451 150.7 19.451C126.046 19.451 106.198 25.5163 91.1545 37.6471C76.5292 49.7778 69.2165 64.4183 69.2165 81.5687C69.2165 96.2092 75.9024 111.268 89.2741 126.745C102.646 141.804 124.166 154.771 153.834 165.647ZM308.027 187.608C318.891 187.608 329.547 187.19 339.994 186.353C350.44 185.516 360.469 184.261 370.08 182.588C362.558 167.529 353.992 153.307 344.381 139.922C334.77 126.536 324.533 114.196 313.668 102.902C307.818 97.0458 301.968 91.817 296.118 87.2157C290.268 82.6144 284.835 77.8039 279.821 72.7843L278.567 71.5294C259.345 84.4967 242.422 99.9739 227.797 117.961C213.171 135.529 202.934 155.399 197.083 177.569C212.545 180.497 229.468 183.007 247.854 185.098C266.24 186.771 286.298 187.608 308.027 187.608ZM190.189 582.275C193.949 582.275 197.71 582.065 201.471 581.647C205.232 581.647 209.202 581.438 213.38 581.02C215.887 565.542 219.857 550.065 225.289 534.588C230.722 519.111 236.99 503.843 244.093 488.784C242.004 489.203 239.706 489.412 237.199 489.412C235.109 489.412 233.02 489.412 230.931 489.412C206.694 489.412 186.01 483.556 168.878 471.843C152.163 459.712 143.806 443.817 143.806 424.157C143.806 414.954 145.895 405.542 150.074 395.922C150.491 394.248 151.954 393.412 154.461 393.412C156.133 393.412 157.386 394.039 158.222 395.294C159.476 396.131 159.684 397.595 158.849 399.686C157.177 403.869 155.924 408.052 155.088 412.235C154.252 416.418 153.834 420.392 153.834 424.157C153.834 440.889 161.147 454.484 175.772 464.941C190.398 474.98 208.575 480 230.304 480C233.647 480 236.781 480 239.706 480C243.049 479.582 246.183 479.163 249.108 478.745C264.569 447.791 283.164 419.346 304.893 393.412C326.622 367.059 349.396 345.726 373.214 329.412C380.736 324.392 388.257 320 395.779 316.235C396.197 312.471 396.405 308.915 396.405 305.569C396.823 301.804 397.032 298.039 397.032 294.275C397.032 277.124 394.943 259.974 390.764 242.824C387.004 225.255 381.571 208.523 374.468 192.627C362.767 194.301 351.276 195.556 339.994 196.392C328.711 196.81 318.056 197.02 308.027 197.02C286.298 197.02 266.031 196.183 247.227 194.51C228.423 192.418 211.082 189.699 195.203 186.353C194.785 189.281 194.158 192.418 193.323 195.765C192.905 198.693 192.487 201.83 192.069 205.176C190.815 220.654 192.696 233.83 197.71 244.706C212.336 240.105 226.961 236.758 241.586 234.667C256.211 232.157 270.419 230.902 284.209 230.902C303.43 230.902 317.429 233.621 326.204 239.059C334.979 244.078 339.367 250.144 339.367 257.255C339.367 266.458 332.681 275.66 319.309 284.863C305.938 293.647 287.551 298.039 264.151 298.039C261.226 298.039 258.092 298.039 254.749 298.039C251.824 297.621 248.69 297.203 245.347 296.784C212.753 293.438 187.055 282.771 168.251 264.784C143.179 276.915 122.494 292.392 106.198 311.216C90.3187 329.621 78.4096 349.699 70.4701 371.451C62.5306 393.203 58.5609 414.954 58.5609 436.706C58.5609 462.222 63.5753 486.065 73.6041 508.235C84.0507 530.405 99.0939 548.183 118.734 561.569C138.373 575.373 162.192 582.275 190.189 582.275ZM273.553 286.745C288.178 286.745 301.132 284.026 312.414 278.588C324.115 273.15 329.965 266.039 329.965 257.255C329.965 252.235 327.249 248.68 321.816 246.588C316.384 244.078 310.116 242.405 303.012 241.569C295.909 240.732 290.059 240.314 285.462 240.314C253.286 240.314 225.289 244.288 201.471 252.235C208.993 264.366 219.439 273.15 232.811 278.588C246.601 284.026 260.181 286.745 273.553 286.745ZM222.782 579.137C246.601 574.954 270.001 567.007 292.984 555.294C315.966 543.582 337.277 529.15 356.917 512C376.557 494.431 394.107 475.399 409.568 454.902C425.029 433.987 437.147 412.444 445.923 390.275C455.116 366.85 459.712 348.863 459.712 336.314C459.712 319.582 452.608 311.216 438.401 311.216C429.208 311.216 417.926 314.562 404.554 321.255C402.882 334.222 399.748 346.98 395.152 359.529C390.973 372.078 385.332 384.418 378.228 396.549C361.932 424.157 342.71 445.281 320.563 459.922C298.834 474.144 277.314 483.137 256.003 486.902C248.063 502.379 241.377 517.856 235.945 533.333C230.513 549.229 226.125 564.497 222.782 579.137Z"/>
</svg>
